<?xml version="1.0"?>
<svg width="640" height="480" xmlns="http://www.w3.org/2000/svg" xmlns:svg="http://www.w3.org/2000/svg" xmlns:xlink="http://www.w3.org/1999/xlink">
 <!-- Created with SVG-edit - https://github.com/SVG-Edit/svgedit-->
 <defs>
  <symbol id="svg_6" viewBox="0 0 24 24" xmlns="http://www.w3.org/2000/svg">
   <title>Atom</title>
   <path d="m20.49,9.03c-2.18,-0.93 -5.12,-1.53 -8.25,-1.7c-0.5,-0.03 -0.99,-0.04 -1.45,-0.04c2.32,-2.83 4.8,-4.73 6.44,-4.79c0.32,-0.01 0.59,0.06 0.81,0.2c0.71,0.45 0.9,1.76 0.54,3.59c-0.04,0.25 0.12,0.49 0.36,0.54c0.25,0.05 0.49,-0.11 0.54,-0.36c0.45,-2.28 0.12,-3.85 -0.94,-4.54c-0.38,-0.25 -0.84,-0.37 -1.35,-0.35c-2.05,0.08 -4.94,2.3 -7.59,5.72c-1.15,0.04 -2.24,0.13 -3.23,0.29c-0.64,-2.9 -0.39,-4.98 0.6,-5.48c0.13,-0.07 0.28,-0.11 0.45,-0.12c0.7,-0.06 1.66,0.39 2.71,1.27c0.2,0.16 0.49,0.14 0.65,-0.06a0.46,0.46 0 0 0 -0.06,-0.65c-1.26,-1.04 -2.42,-1.55 -3.37,-1.48a2.24,2.24 0 0 0 -0.81,0.22c-1.19,0.61 -1.67,2.33 -1.37,4.84c0.07,0.52 0.16,1.06 0.29,1.62c-3.28,0.65 -5.37,1.97 -5.46,3.62c-0.06,1.17 0.87,2.29 2.68,3.22a0.46,0.46 0 1 0 0.42,-0.81c-1.45,-0.75 -2.23,-1.59 -2.18,-2.36c0.05,-1.08 1.77,-2.19 4.76,-2.78c0.27,0.99 0.62,2.03 1.05,3.09c-1.02,1.89 -1.76,3.75 -2.14,5.4c-0.56,2.47 -0.26,4.22 0.86,4.95c0.36,0.23 0.78,0.35 1.25,0.35c0.93,0 2.07,-0.46 3.35,-1.37a0.46,0.46 0 1 0 -0.53,-0.75c-1.55,1.1 -2.85,1.47 -3.56,1c-0.76,-0.49 -0.93,-1.94 -0.46,-3.97c0.32,-1.39 0.9,-2.93 1.7,-4.52c0.2,0.44 0.41,0.87 0.63,1.31c1.43,2.8 3.17,5.23 4.91,6.85c1.39,1.29 2.68,1.96 3.74,1.96c0.35,0 0.68,-0.08 0.97,-0.22c1.15,-0.59 1.64,-2.21 1.4,-4.58c-0.22,-2.21 -1.06,-4.91 -2.35,-7.6a0.46,0.46 0 0 0 -0.83,0.4c2.69,5.6 2.88,10.19 1.37,10.96c-1.59,0.81 -5.43,-2.36 -8.39,-8.18c-0.34,-0.66 -0.64,-1.3 -0.9,-1.93c0.34,-0.61 0.7,-1.22 1.09,-1.83c0.4,-0.61 0.81,-1.19 1.23,-1.75l0.39,0c0.54,0 1.13,0.01 1.74,0.05c6.53,0.34 10.97,2.56 10.88,4.33c-0.04,0.77 -0.92,1.54 -2.43,2.12a0.46,0.46 0 0 0 -0.26,0.6a0.46,0.46 0 0 0 0.6,0.26c1.9,-0.74 2.95,-1.75 3.01,-2.93c0.07,-1.33 -1.17,-2.61 -3.5,-3.6l0,-0.01l-0.01,0zm-12.42,0.42c-0.27,0.41 -0.52,0.83 -0.76,1.24a23.66,23.66 0 0 1 -0.72,-2.21c0.71,-0.11 1.48,-0.19 2.31,-0.24c-0.28,0.39 -0.56,0.79 -0.82,1.21l0,-0.01l-0.01,0.01zm3.93,1.18a1.38,1.38 0 1 0 0,2.75a1.38,1.38 0 1 0 0,-2.75z"/>
  </symbol>
 </defs>
 <g class="layer">
  <title>Layer 1</title>
  <use fill="#ffffff" id="svg_7" transform="matrix(0.981257 0 0 0.981257 -312.28 871.914)" x="316.04" xlink:href="#svg_6" y="-879.24"/>
 </g>
</svg>