<svg version="1.1" viewBox="0.0 0.0 960.0 720.0" fill="none" stroke="none" stroke-linecap="square" stroke-miterlimit="10" xmlns:xlink="http://www.w3.org/1999/xlink" xmlns="http://www.w3.org/2000/svg"><clipPath id="p.0"><path d="m0 0l960.0 0l0 720.0l-960.0 0l0 -720.0z" clip-rule="nonzero"/></clipPath><g clip-path="url(#p.0)"><path fill="#000000" fill-opacity="0.0" d="m0 0l960.0 0l0 720.0l-960.0 0z" fill-rule="evenodd"/><path fill="#000000" fill-opacity="0.0" d="m413.85364 420.17404l0 0c-85.9129 -94.453735 -125.94641 -197.9641 -89.41733 -231.19685l0 0c17.54187 -15.958923 50.754486 -13.245712 92.33145 7.5427704c41.576965 20.788483 88.11252 57.94934 129.36932 103.30762l0 0c85.9129 94.453766 125.94641 197.96411 89.41736 231.19684l0 0c-36.529114 33.232788 -135.78793 -16.396606 -221.7008 -110.85037z" fill-rule="evenodd"/><path stroke="#ffffff" stroke-width="16.0" stroke-linejoin="round" stroke-linecap="butt" d="m413.85364 420.17404l0 0c-85.9129 -94.453735 -125.94641 -197.9641 -89.41733 -231.19685l0 0c17.54187 -15.958923 50.754486 -13.245712 92.33145 7.5427704c41.576965 20.788483 88.11252 57.94934 129.36932 103.30762l0 0c85.9129 94.453766 125.94641 197.96411 89.41736 231.19684l0 0c-36.529114 33.232788 -135.78793 -16.396606 -221.7008 -110.85037z" fill-rule="evenodd"/><path fill="#000000" fill-opacity="0.0" d="m424.22104 274.80106l0 0c99.42868 -79.63338 205.00485 -113.01108 235.811 -74.55118l0 0c14.793701 18.469086 10.013855 51.37303 -13.287903 91.47333c-23.301758 40.10028 -63.216736 84.11215 -110.96405 122.353424l0 0c-99.42865 79.63339 -205.00482 113.01108 -235.811 74.55121l0 0c-30.806183 -38.4599 24.823303 -134.19342 124.25195 -213.82678z" fill-rule="evenodd"/><path stroke="#ffffff" stroke-width="16.0" stroke-linejoin="round" stroke-linecap="butt" d="m424.22104 274.80106l0 0c99.42868 -79.63338 205.00485 -113.01108 235.811 -74.55118l0 0c14.793701 18.469086 10.013855 51.37303 -13.287903 91.47333c-23.301758 40.10028 -63.216736 84.11215 -110.96405 122.353424l0 0c-99.42865 79.63339 -205.00482 113.01108 -235.811 74.55121l0 0c-30.806183 -38.4599 24.823303 -134.19342 124.25195 -213.82678z" fill-rule="evenodd"/><path fill="#000000" fill-opacity="0.0" d="m400.15085 345.4192l0 0c0 -112.9879 35.429443 -204.58269 79.13385 -204.58269l0 0c20.98761 0 41.11563 21.554184 55.956085 59.920883c14.840454 38.366684 23.177795 90.40311 23.177795 144.6618l0 0c0 112.987885 -35.429443 204.58264 -79.13388 204.58264l0 0c-43.704407 0 -79.13385 -91.59476 -79.13385 -204.58264z" fill-rule="evenodd"/><path stroke="#ffffff" stroke-width="16.0" stroke-linejoin="round" stroke-linecap="butt" d="m400.15085 345.4192l0 0c0 -112.9879 35.429443 -204.58269 79.13385 -204.58269l0 0c20.98761 0 41.11563 21.554184 55.956085 59.920883c14.840454 38.366684 23.177795 90.40311 23.177795 144.6618l0 0c0 112.987885 -35.429443 204.58264 -79.13388 204.58264l0 0c-43.704407 0 -79.13385 -91.59476 -79.13385 -204.58264z" fill-rule="evenodd"/><path fill="#ffffff" d="m290.0973 219.9084l0 0c0 -13.176559 10.681702 -23.858261 23.858246 -23.858261l0 0c6.327606 0 12.396057 2.513626 16.870361 6.987915c4.4742737 4.474304 6.987915 10.54274 6.987915 16.870346l0 0c0 13.176559 -10.681702 23.858261 -23.858276 23.858261l0 0c-13.176544 0 -23.858246 -10.681702 -23.858246 -23.858261z" fill-rule="evenodd"/><path fill="#ffffff" d="m313.63867 499.65997l0 0c0 -13.176544 10.681732 -23.858246 23.858276 -23.858246l0 0c6.327606 0 12.396057 2.5136108 16.87033 6.987915c4.474304 4.474304 6.9879456 10.542725 6.9879456 16.87033l0 0c0 13.176575 -10.681702 23.858276 -23.858276 23.858276l0 0c-13.176544 0 -23.858276 -10.681702 -23.858276 -23.858276z" fill-rule="evenodd"/><path fill="#ffffff" d="m574.45337 534.4057l0 0c0 -13.176514 10.681763 -23.858246 23.858276 -23.858246l0 0c6.3276367 0 12.396057 2.5136414 16.870361 6.9879456c4.474304 4.474304 6.987915 10.542725 6.987915 16.8703l0 0c0 13.176575 -10.681702 23.858276 -23.858276 23.858276l0 0c-13.176514 0 -23.858276 -10.681702 -23.858276 -23.858276z" fill-rule="evenodd"/><path fill="#ffffff" d="m456.1422 143.40892l0 0c0 -13.176559 10.681702 -23.858269 23.858276 -23.858269l0 0c6.327606 0 12.396027 2.5136337 16.87033 6.9879303c4.474304 4.4742966 6.987915 10.542732 6.987915 16.870338l0 0c0 13.176559 -10.681702 23.858276 -23.858246 23.858276l0 0c-13.176575 0 -23.858276 -10.681717 -23.858276 -23.858276z" fill-rule="evenodd"/><path fill="#ffffff" d="m433.19168 345.42l0 0c0 -25.848694 20.954468 -46.80316 46.80313 -46.80316l0 0c12.412964 0 24.317535 4.9310303 33.09485 13.708313c8.777283 8.777313 13.708313 20.681854 13.708313 33.09485l0 0c0 25.848663 -20.954498 46.80313 -46.80316 46.80313l0 0c-25.848663 0 -46.80313 -20.954468 -46.80313 -46.80313z" fill-rule="evenodd"/></g></svg>