<svg version="1.1" viewBox="0.0 0.0 960.0 720.0" fill="none" stroke="none" stroke-linecap="square" stroke-miterlimit="10" xmlns:xlink="http://www.w3.org/1999/xlink" xmlns="http://www.w3.org/2000/svg"><clipPath id="p.0"><path d="m0 0l960.0 0l0 720.0l-960.0 0l0 -720.0z" clip-rule="nonzero"/></clipPath><g clip-path="url(#p.0)"><path fill="#000000" fill-opacity="0.0" d="m0 0l960.0 0l0 720.0l-960.0 0z" fill-rule="evenodd"/><path fill="#ffffff" d="m340.507 268.3849l30.168488 4.7839966l3.1325684 1.6661072l5.117279 4.6779785l4.14447 7.1022034l1.8927002 5.805725l1.2939453 7.352295l-0.5109253 7.6495056l-1.405426 7.381592l-2.0059204 6.0082397l-4.275818 7.75708l-11.862122 17.91626l18.055267 2.8631287l3.3141174 1.2696533l1.1097412 3.3379211l0.10003662 3.064087l-1.6322021 2.9031067l-3.4285278 1.6812744l-3.3335571 1.8150024l-4.700989 2.300293l-3.2130737 2.5362244l-1.952301 3.4407043l-0.6930847 3.6379395l1.2071533 3.4720154l3.2027588 3.437439l3.504486 3.015564l2.5386353 3.21344l-0.0904541 2.7841797l-1.5235596 2.2182312l-2.143341 0.95059204l-4.7762756 -0.17147827l-3.0660095 -0.6048889l-1.9436951 -0.30822754l-3.5639343 2.5349731l-3.2694702 5.105774l-3.332306 6.967285l-2.5497131 9.437439l-1.9224548 9.161163l-1.5370789 14.868774l-0.38104248 12.006317l1.6080933 13.493591l2.9185486 14.848511l5.5934753 17.171295l6.436035 10.39267l6.034424 4.054596l5.3989563 6.5965576l1.7287292 4.6103516l-1.357666 4.118469l-2.7864685 3.5408325l-1.3970032 1.4199829l4.593292 3.5393066l6.043091 4.748108l3.0466003 5.17041l2.509674 7.0753784l-0.49121094 5.3114624l-2.38974 3.2526855l-3.977356 2.1801758l-2.6737976 1.3337402l3.1029968 2.60083l2.4456177 3.784607l1.2664795 6.0599365l-3.0460205 16.246277l-156.10434 -24.754456l2.6160583 -17.978271l1.0426788 -2.880371l2.0883484 -2.833252l2.7101288 -1.5628052l3.7597656 -0.8079834l-3.703186 -3.7269287l-1.9582214 -4.644287l0.47972107 -6.7199707l2.4033508 -4.07135l3.7910614 -3.9674072l5.1520386 -2.9308472l5.444916 -1.8312378l4.247528 -1.670105l-0.5765686 -3.0209656l-2.048172 -1.8476562l-0.6539612 -3.265625l-0.13673401 -2.8325806l1.8229218 -2.6404724l4.882248 -3.4433594l6.540161 -2.8293762l5.018341 -1.355011l4.802826 -3.690796l5.3760986 -5.8248596l8.53418 -10.243744l5.312042 -9.115601l5.8572083 -13.286285l4.277252 -12.209259l2.8796997 -12.235565l2.1730652 -11.489807l0.8890381 -10.049377l-0.5476074 -6.882904l-1.384552 -6.780731l-2.0986023 -5.240082l-1.3520813 -2.5580444l-7.4818726 -0.8354187l-1.5333557 -1.4149475l-1.4294739 -2.8027039l0.15179443 -2.4382324l1.2401733 -1.9121399l1.9501953 -1.2135925l3.4007263 -1.4904175l2.59198 -1.581543l2.481018 -1.5991516l1.4078369 -2.2365723l1.024292 -2.7646484l-0.50149536 -3.4787903l-1.0578613 -3.680725l-3.1847534 -3.5507812l-4.039734 -3.3352966l-3.944336 -3.2039795l-1.4489746 -2.679718l0.06726074 -3.3861084l1.8612671 -2.8667908l2.5943604 -1.5811768l4.565155 0.021820068l15.186768 3.2265625l-2.3830872 -7.8735657l-1.5345459 -8.797119l-1.6004028 -7.633301l-0.7475281 -7.851532l1.2810669 -9.55954l1.726654 -7.9264526l4.2941895 -7.8728333l6.314514 -7.315094l7.100189 -4.147278z" fill-rule="evenodd"/><path fill="#ffffff" d="m441.2697 150.66595l42.07431 -15.383026l5.2027283 -0.098724365l9.894104 2.3458405l10.37619 6.1463623l6.5658264 6.090622l6.901367 8.499649l4.800293 10.167679l3.4629517 10.462189l1.7139282 9.130402l0.05206299 12.990372l-2.425415 31.419968l25.180725 -9.206467l5.152649 -0.7362213l3.8026123 3.4863281l2.3132324 3.8554688l-0.02142334 4.8844604l-3.1949463 4.599655l-2.9777832 4.703308l-4.3842163 6.300354l-2.309082 5.5416565l-0.04827881 5.8017426l1.7060547 5.1564636l4.0230103 3.5887756l6.555847 2.1212769l6.6417236 1.365448l5.545044 2.3078613l1.8695068 3.6325989l-0.3706665 3.9292908l-2.0688477 2.7467346l-6.243408 3.1863098l-4.3605957 1.4112854l-2.7108154 0.9911194l-2.7595825 5.7902527l-0.54901123 8.874908l0.6980591 11.305328l3.4625244 13.912933l4.069336 13.111542l8.633484 20.151337l8.07373 15.658569l11.683533 16.146057l14.329224 16.947937l19.413757 18.017181l15.659485 8.729095l10.624878 0.8928528l11.623291 4.60376l5.503235 4.6756287l1.1970825 6.2462463l-1.0459595 6.5249023l-0.7776489 2.8160706l8.410461 1.2601624l11.130676 1.7755432l7.5915527 4.4535522l8.261963 7.277771l3.1582031 7.1572876l-0.74298096 5.872711l-3.5424805 5.630371l-2.475525 3.6160278l5.831482 1.1202698l5.833069 3.1061707l5.94458 6.8630066l7.682068 22.992798l-217.7102 79.59827l-9.46817 -24.905823l-0.7178345 -4.4349365l0.6558838 -5.1202393l2.358673 -3.9355469l4.2421875 -3.7166748l-7.4036255 -2.135437l-5.8215637 -4.55542l-4.1773987 -8.954163l0.17663574 -6.9315186l2.0292053 -7.788025l4.5125732 -7.4301147l5.672058 -6.2297974l4.252472 -5.1693726l-2.8932495 -3.4603882l-3.9424744 -0.9072876l-3.1669006 -3.71875l-2.195221 -3.5325928l0.45318604 -4.6838684l3.8013306 -7.8945312l6.3638916 -8.290009l5.4649963 -5.315277l3.5230713 -8.154999l2.735962 -11.298767l3.631958 -19.213928l0.30706787 -15.470367l-1.9685059 -21.204132l-3.2252197 -18.697113l-5.035034 -17.734222l-5.408783 -16.274506l-6.027191 -13.512878l-5.6101685 -8.430328l-6.6099243 -7.7025757l-6.4263306 -5.2189026l-3.5570068 -2.314087l-10.184204 4.264923l-2.9741516 -0.71987915l-3.8306274 -2.5724487l-1.5442505 -3.2329712l0.22576904 -3.3349l1.6337891 -2.946045l3.2954407 -4.335205l2.1938782 -3.8752747l2.0391846 -3.818695l0.20925903 -3.8702698l-0.658844 -4.273529l-3.1235352 -4.100647l-3.9805298 -3.962677l-6.6136475 -2.2793884l-7.555603 -1.3935242l-7.339752 -1.2932739l-3.7679443 -2.400879l-2.3285828 -4.3874817l0.3409729 -5.0012817l2.1972656 -3.8764954l5.8660583 -3.2275696l21.763672 -6.695114l-8.668945 -8.391022l-8.240051 -10.179703l-7.494568 -8.641205l-6.5571594 -9.529144l-5.175415 -13.164673l-3.4397583 -11.389557l-0.1111145 -13.151794l2.875824 -13.877838l6.1417847 -10.378311z" fill-rule="evenodd"/></g></svg>