<?xml version="1.0"?>
<svg width="24" height="24" xmlns="http://www.w3.org/2000/svg" xmlns:svg="http://www.w3.org/2000/svg">
 <title>LinkedIn</title>
 <g class="layer">
  <title>Layer 1</title>
  <path d="m20.45,20.45l-3.56,0l0,-5.57c0,-1.32 -0.02,-3.03 -1.85,-3.03c-1.85,0 -2.13,1.44 -2.13,2.94l0,5.66l-3.56,0l0,-11.45l3.41,0l0,1.56l0.05,0c0.48,-0.9 1.64,-1.85 3.37,-1.85c3.6,0 4.27,2.37 4.27,5.46l0,6.28zm-15.11,-13.02c-1.15,0 -2.07,-0.92 -2.07,-2.06c0,-1.14 0.92,-2.06 2.07,-2.06c1.14,0 2.06,0.92 2.06,2.06c0,1.14 -0.92,2.06 -2.06,2.06zm1.78,13.02l-3.56,0l0,-11.45l3.56,0l0,11.45zm15.11,-20.45l-20.46,0c-0.98,0 -1.77,0.77 -1.77,1.73l0,20.54c0,0.96 0.79,1.73 1.77,1.73l20.45,0c0.98,0 1.78,-0.77 1.78,-1.73l0,-20.54c0,-0.96 -0.8,-1.73 -1.78,-1.73l0.01,0z" fill="#ffffff" id="svg_1"/>
 </g>
</svg>