<?xml version="1.0" encoding="UTF-8" standalone="no" ?>
<!DOCTYPE svg PUBLIC "-//W3C//DTD SVG 1.1//EN" "http://www.w3.org/Graphics/SVG/1.1/DTD/svg11.dtd">
<svg xmlns="http://www.w3.org/2000/svg" xmlns:xlink="http://www.w3.org/1999/xlink" version="1.1" width="640" height="480" viewBox="0 0 640 480" xml:space="preserve">
<desc>Created with Fabric.js 3.6.6</desc>
<defs>
</defs>
<g transform="matrix(22.88 0 0 22.88 320.02 240.48)"  >
<path style="stroke: none; stroke-width: 1; stroke-dasharray: none; stroke-linecap: butt; stroke-dashoffset: 0; stroke-linejoin: miter; stroke-miterlimit: 4; fill: rgb(255,255,255); fill-rule: nonzero; opacity: 1;"  transform=" translate(-12, -12)" d="M 12.51 13.214 c 0.046 -0.8 0.438 -1.506 1.03 -2.006 a 3.424 3.424 0 0 1 2.212 -0.79 c 0.85 0 1.631 0.3 2.211 0.79 c 0.592 0.5 0.983 1.206 1.028 2.005 c 0.045 0.823 -0.285 1.586 -0.865 2.153 a 3.389 3.389 0 0 1 -2.374 0.938 a 3.393 3.393 0 0 1 -2.376 -0.938 c -0.58 -0.567 -0.91 -1.33 -0.865 -2.152 M 7.35 14.831 c 0.006 0.314 0.106 0.922 0.256 1.398 a 7.372 7.372 0 0 0 1.593 2.757 a 8.227 8.227 0 0 0 2.787 2.001 a 8.947 8.947 0 0 0 3.66 0.76 a 8.964 8.964 0 0 0 3.657 -0.772 a 8.285 8.285 0 0 0 2.785 -2.01 a 7.428 7.428 0 0 0 1.592 -2.762 a 6.964 6.964 0 0 0 0.25 -3.074 a 7.123 7.123 0 0 0 -1.016 -2.779 a 7.764 7.764 0 0 0 -1.852 -2.043 h 0.002 L 13.566 2.55 l -0.02 -0.015 c -0.492 -0.378 -1.319 -0.376 -1.86 0.002 c -0.547 0.382 -0.609 1.015 -0.123 1.415 l -0.001 0.001 l 3.126 2.543 l -9.53 0.01 h -0.013 c -0.788 0.001 -1.545 0.518 -1.695 1.172 c -0.154 0.665 0.38 1.217 1.2 1.22 V 8.9 l 4.83 -0.01 l -8.62 6.617 l -0.034 0.025 c -0.813 0.622 -1.075 1.658 -0.563 2.313 c 0.52 0.667 1.625 0.668 2.447 0.004 L 7.414 14 s -0.069 0.52 -0.063 0.831 z m 12.09 1.741 c -0.97 0.988 -2.326 1.548 -3.795 1.55 c -1.47 0.004 -2.827 -0.552 -3.797 -1.538 a 4.51 4.51 0 0 1 -1.036 -1.622 a 4.282 4.282 0 0 1 0.282 -3.519 a 4.702 4.702 0 0 1 1.153 -1.371 c 0.942 -0.768 2.141 -1.183 3.396 -1.185 c 1.256 -0.002 2.455 0.41 3.398 1.175 c 0.48 0.391 0.87 0.854 1.152 1.367 a 4.28 4.28 0 0 1 0.522 1.706 a 4.236 4.236 0 0 1 -0.239 1.811 a 4.54 4.54 0 0 1 -1.035 1.626" stroke-linecap="round" />
</g>
</svg>