<?xml version="1.0" encoding="UTF-8" standalone="no" ?>
<!DOCTYPE svg PUBLIC "-//W3C//DTD SVG 1.1//EN" "http://www.w3.org/Graphics/SVG/1.1/DTD/svg11.dtd">
<svg xmlns="http://www.w3.org/2000/svg" xmlns:xlink="http://www.w3.org/1999/xlink" version="1.1" width="640" height="480" viewBox="0 0 640 480" xml:space="preserve">
<desc>Created with Fabric.js 3.6.6</desc>
<defs>
</defs>
<g transform="matrix(19.07 0 0 19.07 323.29 241.31)"  >
<path style="stroke: none; stroke-width: 1; stroke-dasharray: none; stroke-linecap: butt; stroke-dashoffset: 0; stroke-linejoin: miter; stroke-miterlimit: 4; fill: rgb(255,255,255); fill-rule: nonzero; opacity: 1;"  transform=" translate(-12, -12)" d="M 10.457 6.161 a 0.237 0.237 0 0 0 -0.296 0.165 c -0.8 2.785 2.819 5.579 5.214 7.428 c 0.653 0.504 1.216 0.939 1.591 1.292 c 1.745 1.642 2.564 2.851 2.733 3.178 a 0.24 0.24 0 0 0 0.275 0.122 c 0.047 -0.013 4.726 -1.3 3.934 -4.574 a 0.257 0.257 0 0 0 -0.023 -0.06 L 18.204 3.407 L 18.93 0.295 a 0.24 0.24 0 0 0 -0.262 -0.293 c -1.7 0.201 -3.115 0.435 -4.5 1.425 c -4.844 -0.323 -8.718 0.9 -11.213 3.539 C 0.334 7.737 -0.246 11.515 0.085 14.128 c 0.763 5.655 5.191 8.631 9.081 9.532 c 0.993 0.229 1.974 0.34 2.923 0.34 c 3.344 0 6.297 -1.381 7.946 -3.85 a 0.24 0.24 0 0 0 -0.372 -0.3 c -3.411 3.527 -9.002 4.134 -13.296 1.444 c -4.485 -2.81 -6.202 -8.41 -3.91 -12.749 C 4.741 4.221 8.801 2.362 13.888 3.31 c 0.056 0.01 0.115 0 0.165 -0.029 l 0.335 -0.197 c 0.926 -0.546 1.961 -1.157 2.873 -1.279 l -0.694 1.993 a 0.243 0.243 0 0 0 0.02 0.202 l 6.082 10.192 c -0.193 2.028 -1.706 2.506 -2.226 2.611 c -0.287 -0.645 -0.814 -1.364 -2.306 -2.803 c -0.422 -0.407 -1.21 -0.941 -2.124 -1.56 c -2.364 -1.601 -5.937 -4.02 -5.391 -5.984 a 0.239 0.239 0 0 0 -0.165 -0.295 z" stroke-linecap="round" />
</g>
</svg>