<svg version="1.1" viewBox="0.0 0.0 613.1653543307086 375.6377952755906" fill="none" stroke="none" stroke-linecap="square" stroke-miterlimit="10" xmlns:xlink="http://www.w3.org/1999/xlink" xmlns="http://www.w3.org/2000/svg"><clipPath id="p.0"><path d="m0 0l613.16534 0l0 375.6378l-613.16534 0l0 -375.6378z" clip-rule="nonzero"/></clipPath><g clip-path="url(#p.0)"><path fill="#000000" fill-opacity="0.0" d="m0 0l613.16534 0l0 375.6378l-613.16534 0z" fill-rule="evenodd"/><path fill="#000000" d="m138.93163 31.76263l0 0c11.863251 -11.036997 31.094467 -11.033865 42.954117 0.006998062l292.35947 272.175c5.695221 5.302002 8.8940735 12.49234 8.892853 19.989197c-0.0012207031 7.4968567 -3.202423 14.686157 -8.899353 19.986298l0 0l0 0c-11.863251 11.037018 -31.094452 11.0338745 -42.9541 -0.0069885254l-292.3595 -272.175l0 0c-11.85965 -11.040867 -11.856735 -28.938507 0.006515503 -39.975506z" fill-rule="evenodd"/><path fill="#000000" d="m138.92651 343.87482l0 0c-11.863258 -11.036987 -11.866173 -28.934631 -0.006515503 -39.975494l292.3595 -272.175c5.6951904 -5.3020096 13.420258 -8.281385 21.475708 -8.282698c8.05545 -0.0013122559 15.781464 2.975546 21.478394 8.275698l0 0l0 0c11.863251 11.036997 11.86618 28.93464 0.0065307617 39.975502l-292.3595 272.175l0 0c-11.859665 11.040863 -31.090866 11.044006 -42.954117 0.0069885254z" fill-rule="evenodd"/></g></svg>