<svg version="1.1" viewBox="0.0 0.0 613.1653543307086 375.6377952755906" fill="none" stroke="none" stroke-linecap="square" stroke-miterlimit="10" xmlns:xlink="http://www.w3.org/1999/xlink" xmlns="http://www.w3.org/2000/svg"><clipPath id="p.0"><path d="m0 0l613.16534 0l0 375.6378l-613.16534 0l0 -375.6378z" clip-rule="nonzero"/></clipPath><g clip-path="url(#p.0)"><path fill="#000000" fill-opacity="0.0" d="m0 0l613.16534 0l0 375.6378l-613.16534 0z" fill-rule="evenodd"/><path fill="#000000" d="m0 39.227036l0 0c0 -21.665218 17.56313 -39.228348 39.228348 -39.228348l533.95276 0c10.403992 0 20.381897 4.1329746 27.738647 11.489717c7.3567505 7.356742 11.489685 17.334625 11.489685 27.738632l0 0l0 0c0 21.665215 -17.56311 39.228348 -39.228333 39.228348l-533.95276 0l0 0c-21.665218 0 -39.228348 -17.563133 -39.228348 -39.228348z" fill-rule="evenodd"/><path fill="#000000" d="m0 187.69554l0 0c0 -21.665222 17.56313 -39.228348 39.228348 -39.228348l533.95276 0c10.403992 0 20.381897 4.132965 27.738647 11.489716c7.3567505 7.356735 11.489685 17.334625 11.489685 27.738632l0 0l0 0c0 21.665207 -17.56311 39.228348 -39.228333 39.228348l-533.95276 0l0 0c-21.665218 0 -39.228348 -17.56314 -39.228348 -39.228348z" fill-rule="evenodd"/><path fill="#000000" d="m0 336.16403l0 0c0 -21.665222 17.56313 -39.228333 39.228348 -39.228333l533.95276 0c10.403992 0 20.381897 4.132965 27.738647 11.489716c7.3567505 7.3567505 11.489685 17.334625 11.489685 27.738617l0 0l0 0c0 21.665222 -17.56311 39.228363 -39.228333 39.228363l-533.95276 0l0 0c-21.665218 0 -39.228348 -17.56314 -39.228348 -39.228363z" fill-rule="evenodd"/></g></svg>