<?xml version="1.0"?>
<svg width="640" height="480" xmlns="http://www.w3.org/2000/svg" xmlns:svg="http://www.w3.org/2000/svg" xmlns:xlink="http://www.w3.org/1999/xlink">
 <!-- Created with SVG-edit - https://github.com/SVG-Edit/svgedit-->
 <defs>
  <symbol id="svg_4" viewBox="0 0 24 24" xmlns="http://www.w3.org/2000/svg">
   <title>GNOME Terminal</title>
   <path d="m1.85,0a1.84,1.84 0 0 0 -1.85,1.85l0,18.46c0,1.02 0.82,1.84 1.85,1.84l20.3,0a1.84,1.84 0 0 0 1.85,-1.84l0,-18.46a1.84,1.84 0 0 0 -1.85,-1.85l-20.3,0zm0,0.92l20.3,0c0.52,0 0.93,0.41 0.93,0.93l0,18.46c0,0.51 -0.41,0.92 -0.93,0.92l-20.3,0a0.92,0.92 0 0 1 -0.93,-0.92l0,-18.46c0,-0.52 0.41,-0.93 0.93,-0.93zm0,0.93l0,18.46l20.3,0l0,-18.46l-20.3,0zm1.84,2.14l3.24,1.75l0,0.84l-3.24,1.9l0,-1.1l2.24,-1.2l0,-0.04l-2.24,-1.06l0,-1.09zm4.16,5.24l3.69,0l0,0.92l-3.69,0l0,-0.92zm-7.85,12.51l0,0.41c0,1.03 0.82,1.85 1.85,1.85l20.3,0a1.84,1.84 0 0 0 1.85,-1.85l0,-0.41a2.33,2.33 0 0 1 -1.85,0.91l-20.3,0a2.33,2.33 0 0 1 -1.85,-0.91z"/>
  </symbol>
 </defs>
 <g class="layer">
  <title>Layer 1</title>
  <use fill="#ffffff" id="svg_5" transform="matrix(0.94441 0 0 0.94441 483.835 821.574)" x="-492.07" xlink:href="#svg_4" y="-851.57"/>
 </g>
</svg>