<?xml version="1.0"?>
<svg width="640" height="480" xmlns="http://www.w3.org/2000/svg" xmlns:svg="http://www.w3.org/2000/svg" xmlns:xlink="http://www.w3.org/1999/xlink">
 <!-- Created with SVG-edit - https://github.com/SVG-Edit/svgedit-->
 <defs>
  <symbol id="svg_1" viewBox="0 0 24 24" xmlns="http://www.w3.org/2000/svg">
   <title>GitBook</title>
   <path d="m10.8,17.77a0.7,0.7 0 1 1 0,1.41a0.7,0.7 0 0 1 0,-1.41m11.03,-4.35a0.7,0.7 0 1 1 0,-1.4a0.7,0.7 0 0 1 0,1.4m0,-2.87a2.18,2.18 0 0 0 -2.18,2.17c0,0.23 0.04,0.47 0.12,0.69l-7.18,3.82a2.17,2.17 0 0 0 -1.79,-0.93c-0.83,0 -1.58,0.47 -1.95,1.21l-6.45,-3.4c-0.68,-0.36 -1.19,-1.48 -1.14,-2.5c0.03,-0.53 0.22,-0.95 0.5,-1.11c0.17,-0.1 0.39,-0.09 0.62,0.03l0.04,0.02c1.71,0.9 7.3,3.85 7.54,3.96c0.36,0.17 0.56,0.24 1.18,-0.06l11.57,-6.01c0.17,-0.07 0.36,-0.23 0.36,-0.48c0,-0.34 -0.35,-0.47 -0.35,-0.47c-0.66,-0.32 -1.67,-0.79 -2.66,-1.25c-2.1,-0.99 -4.49,-2.11 -5.54,-2.66c-0.91,-0.47 -1.64,-0.07 -1.77,0.01l-0.25,0.12c-4.72,2.34 -11.04,5.47 -11.4,5.69c-0.64,0.39 -1.04,1.17 -1.09,2.14c-0.08,1.54 0.7,3.14 1.82,3.73l6.82,3.51a2.17,2.17 0 0 0 2.15,1.87a2.18,2.18 0 0 0 2.18,-2.14l7.51,-4.08c0.38,0.3 0.85,0.46 1.34,0.46a2.18,2.18 0 0 0 2.17,-2.17a2.18,2.18 0 0 0 -2.17,-2.17"/>
  </symbol>
 </defs>
 <g class="layer">
  <title>Layer 1</title>
  <use fill="#ffffff" id="svg_2" transform="matrix(1.19211 0 0 1.18526 143.463 682.18)" x="-171.85" xlink:href="#svg_1" y="-602.01"/>
 </g>
</svg>