<svg version="1.1" viewBox="0.0 0.0 116.9028871391076 111.06036745406824" fill="none" stroke="none" stroke-linecap="square" stroke-miterlimit="10" xmlns:xlink="http://www.w3.org/1999/xlink" xmlns="http://www.w3.org/2000/svg"><clipPath id="p.0"><path d="m0 0l116.902885 0l0 111.06036l-116.902885 0l0 -111.06036z" clip-rule="nonzero"/></clipPath><g clip-path="url(#p.0)"><path fill="#000000" fill-opacity="0.0" d="m0 0l116.902885 0l0 111.06036l-116.902885 0z" fill-rule="evenodd"/><path fill="#fca5a5" d="m6.598474 107.28397l0 0c-3.6442096 -3.6442108 -3.6442096 -9.552635 0 -13.196846l90.17323 -90.17323c1.7500076 -1.7500112 4.123535 -2.7331572 6.598419 -2.7331572c2.4748917 0 4.848419 0.98314595 6.598427 2.7331572l0 0l0 0c3.6442108 3.6442099 3.6442108 9.552641 0 13.196852l-90.173225 90.173225l0 0c-3.644209 3.6442108 -9.552641 3.6442108 -13.19685 0z" fill-rule="evenodd"/><path fill="#fca5a5" d="m6.598474 3.913897l0 0c3.6442094 -3.6442096 9.552641 -3.6442096 13.19685 0l90.173225 90.17323c1.7500153 1.7500076 2.733162 4.123535 2.733162 6.598419c0 2.4748917 -0.98314667 4.848419 -2.733162 6.598427l0 0l0 0c-3.6442108 3.6442108 -9.552643 3.6442108 -13.196846 0l-90.17323 -90.173225l0 0c-3.6442096 -3.6442108 -3.6442096 -9.552641 0 -13.196852z" fill-rule="evenodd"/></g></svg>