<svg version="1.1" viewBox="0.0 0.0 146.18372703412072 100.0" fill="none" stroke="none" stroke-linecap="square" stroke-miterlimit="10" xmlns:xlink="http://www.w3.org/1999/xlink" xmlns="http://www.w3.org/2000/svg"><clipPath id="p.0"><path d="m0 0l146.18373 0l0 100.0l-146.18373 0l0 -100.0z" clip-rule="nonzero"/></clipPath><g clip-path="url(#p.0)"><path fill="#000000" fill-opacity="0.0" d="m0 0l146.18373 0l0 100.0l-146.18373 0z" fill-rule="evenodd"/><path fill="#86efac" d="m0 9.322835l0 0c0 -5.1488595 4.1739755 -9.322835 9.322835 -9.322835l127.55906 0c2.4725647 0 4.843857 0.9822244 6.5922394 2.730595c1.7483673 1.7483706 2.7305908 4.11967 2.7305908 6.59224l0 0l0 0c0 5.148859 -4.1739807 9.322835 -9.32283 9.322835l-127.55906 0l0 0c-5.1488595 0 -9.322835 -4.173976 -9.322835 -9.322835z" fill-rule="evenodd"/><path fill="#86efac" d="m0 47.175854l0 0c0 -5.148861 4.1739755 -9.322834 9.322835 -9.322834l127.55906 0c2.4725647 0 4.843857 0.9822235 6.5922394 2.7305946c1.7483673 1.7483711 2.7305908 4.119671 2.7305908 6.5922394l0 0l0 0c0 5.148857 -4.1739807 9.322834 -9.32283 9.322834l-127.55906 0l0 0c-5.1488595 0 -9.322835 -4.173977 -9.322835 -9.322834z" fill-rule="evenodd"/><path fill="#86efac" d="m0 85.02887l0 0c0 -5.148857 4.1739755 -9.32283 9.322835 -9.32283l127.55906 0c2.4725647 0 4.843857 0.9822235 6.5922394 2.7305908c1.7483673 1.7483749 2.7305908 4.1196747 2.7305908 6.5922394l0 0l0 0c0 5.1488647 -4.1739807 9.322838 -9.32283 9.322838l-127.55906 0l0 0c-5.1488595 0 -9.322835 -4.173973 -9.322835 -9.322838z" fill-rule="evenodd"/></g></svg>